/* XPM */
static char *d377c3fa350344d8a0008f1d7e75d1fd[] = {
/* columns rows colors chars-per-pixel */
"60 60 148 2 ",
"   c #030303",
".  c #0B0A0B",
"X  c #101010",
"o  c gray10",
"O  c #2D2D2B",
"+  c #302F2D",
"@  c #32312F",
"#  c #353435",
"$  c #383735",
"%  c #3D3D3C",
"&  c #41413F",
"*  c #413F40",
"=  c #444342",
"-  c #484745",
";  c #4A4947",
":  c #494748",
">  c #4D4C4B",
",  c #504E4F",
"<  c #51504E",
"1  c #545353",
"2  c #585755",
"3  c #595957",
"4  c #5D5D5C",
"5  c #605F5D",
"6  c #61605E",
"7  c #615F60",
"8  c #656464",
"9  c #686765",
"0  c #6A6966",
"q  c #6C6C6B",
"w  c #72716E",
"e  c #737372",
"r  c #797977",
"t  c #7D7C7B",
"y  c #807F7E",
"u  c #81807E",
"i  c #858483",
"p  c #898886",
"a  c #898788",
"s  c #8C8B8B",
"d  c #92918F",
"f  c #949493",
"g  c #9A9996",
"h  c #999798",
"j  c #9D9D9B",
"k  c #A09F9E",
"l  c #A2A19F",
"z  c #9E9EA0",
"x  c #A4A3A3",
"c  c #A8A7A6",
"v  c #AAA9A7",
"b  c #ABABAA",
"n  c #B0AEAF",
"m  c #B2B1AE",
"M  c #B1AFB0",
"N  c #B4B4B3",
"B  c #B8B6B7",
"V  c #BCBCBB",
"C  c #C0BFBE",
"Z  c #C2C1BF",
"A  c #C4C4C3",
"S  c #C9C8C6",
"D  c #C9C7C8",
"F  c #CDCCCC",
"G  c #D1D1CF",
"H  c #D1CFD0",
"J  c #D3D3D3",
"K  c #D8D6D7",
"L  c #DAD9D7",
"P  c #DADADA",
"I  c #DEDDDB",
"U  c gainsboro",
"Y  c #DDDDDD",
"T  c #DFDFDD",
"R  c #DFDFDF",
"E  c gray87",
"W  c #DCDCDB",
"Q  c #E1E1DF",
"!  c #E1E1DF",
"~  c gray88",
"^  c #E1E1E1",
"/  c #E2E2E2",
"(  c gray89",
")  c #E4E4E4",
"_  c gray90",
"`  c #E6E6E4",
"'  c #E7E7E5",
"]  c #E7E5E6",
"[  c #E6E6E6",
"{  c #E7E7E7",
"}  c #E4E3E3",
"|  c #E8E8E6",
" . c #E9E9E7",
".. c #EAE9E7",
"X. c #E8E8E6",
"o. c #E9E7E8",
"O. c gray91",
"+. c #E9E9E9",
"@. c #EAE8E9",
"#. c #EAEAEA",
"$. c gray92",
"%. c #ECEAEB",
"&. c #ECECEA",
"*. c #ECECEC",
"=. c gray93",
"-. c #EEEEEE",
";. c #EFEFEF",
":. c #EEEEEC",
">. c #ECECEB",
",. c #F0EEEF",
"<. c #F0F0EE",
"1. c #F0F0EE",
"2. c gray94",
"3. c #F1F1F1",
"4. c gray95",
"5. c #F3F3F3",
"6. c #F4F2F3",
"7. c #F4F4F4",
"8. c gray96",
"9. c #F6F4F5",
"0. c #F7F7F5",
"q. c #F7F5F6",
"w. c #F6F6F6",
"e. c gray97",
"r. c #F4F4F4",
"t. c #F8F6F7",
"y. c #F8F8F6",
"u. c #F9F7F8",
"i. c #F8F8F8",
"p. c #F9F9F9",
"a. c #FAF8F9",
"s. c #FBFBF9",
"d. c gray98",
"f. c #FBFBFB",
"g. c #F8F8FA",
"h. c #FCFCFA",
"j. c gray99",
"k. c #FDFDFD",
"l. c #FEFEFC",
"z. c #FFFFFD",
"x. c #FCFCFE",
"c. c #FDFDFF",
"v. c #FFFDFE",
"b. c #FEFEFE",
"n. c #FEFEFF",
"m. c #FFFEFF",
"M. c white",
"N. c #FFFFFF",
/* pixels */
"M.M.M.M.M.M.M.M.M.M.M.M.M.M.M.M.M.M.M.M.M.M.M.M.M.M.M.M.M.M.M.M.M.M.M.M.M.M.M.M.M.M.M.M.M.M.M.M.M.M.M.M.M.M.M.M.M.M.M.M.",
"M.M.M.M.M.M.M.M.M.M.M.M.M.M.M.M.M.M.M.M.M.M.M.M.M.M.M.M.M.M.M.M.M.M.M.M.M.M.M.M.M.M.M.M.M.M.M.M.M.M.M.M.M.M.M.M.M.M.M.M.",
"M.M.M.M.M.M.M.M.M.M.M.M.M.M.M.M.M.M.M.M.M.M.M.M.M.M.M.M.M.M.M.M.M.M.M.M.M.M.M.M.M.M.M.M.M.M.M.M.M.M.M.M.M.M.M.M.M.M.M.M.",
"M.M.M.M.M.M.M.M.M.M.M.M.M.M.M.M.M.M.M.M.M.M.M.M.M.M.M.M.M.M.M.M.M.M.M.M.M.M.M.M.M.M.M.M.M.M.M.M.M.M.M.M.M.M.M.M.M.M.M.M.",
"M.M.M.M.M.M.M.M.M.M.M.M.M.M.M.M.M.M.M.M.M.M.M.M.M.M.M.M.M.M.M.M.M.M.M.M.M.M.M.M.M.M.M.M.M.M.M.M.M.M.M.M.M.M.M.M.M.M.M.M.",
"M.M.M.M.M.M.M.M.M.M.M.M.M.M.M.M.M.M.M.M.M.M.M.M.M.M.M.M.M.M.M.M.M.M.M.M.M.M.M.M.M.M.M.M.M.M.M.M.M.M.M.M.M.M.M.M.M.M.M.M.",
"M.M.M.M.M.M.M.M.M.M.M.M.M.M.M.M.M.M.M.M.M.M.M.M.M.M.M.M.M.M.M.M.M.M.M.M.M.M.M.M.M.M.M.M.M.M.M.M.M.M.M.M.M.M.M.M.M.M.M.M.",
"M.M.M.M.M.M.M.M.M.M.M.M.M.M.M.M.M.M.M.M.M.M.M.M.M.M.M.M.M.M.M.M.M.M.M.M.M.M.M.M.M.M.M.M.M.M.M.M.M.M.M.M.M.M.M.M.M.M.M.M.",
"M.M.M.M.M.M.M.M.M.M.M.M.M.M.M.M.M.M.M.M.M.M.M.M.M.M.M.M.M.M.M.M.M.M.M.M.M.M.M.M.M.M.M.M.M.M.M.M.M.M.M.M.M.M.M.M.M.M.M.M.",
"M.M.M.M.M.M.M.M.M.M.M.M.M.M.M.M.M.M.M.M.M.M.M.M.M.M.M.M.M.M.M.M.M.M.M.M.M.M.M.M.M.M.M.M.M.M.M.M.M.M.M.M.M.M.M.M.M.M.M.M.",
"M.M.M.M.M.M.M.M.M.M.M.M.M.M.M.M.M.M.M.M.M.M.M.M.M.M.M.M.M.M.M.M.M.M.M.M.M.M.M.M.M.M.M.M.M.M.M.M.M.M.M.M.M.M.M.M.M.M.M.M.",
"M.M.M.M.M.M.M.M.M.M.M.M.M.M.M.M.M.M.M.M.M.M.M.M.M.M.M.M.M.M.M.M.M.M.M.M.M.M.M.M.M.M.M.M.M.M.M.M.M.M.M.M.M.M.M.M.M.M.M.M.",
"M.M.M.M.M.M.M.M.M.M.M.M.M.M.M.M.M.M.M.M.M.M.M.M.M.M.M.M.M.M.M.M.M.M.M.M.M.M.M.M.M.M.M.M.M.M.M.M.M.M.M.M.M.M.M.M.M.M.M.M.",
"M.M.M.M.M.M.M.M.M.M.M.M.M.M.M.M.M.M.M.M.M.M.M.M.M.M.M.M.M.M.M.M.M.M.M.M.M.M.M.M.M.M.M.M.M.M.M.M.M.M.M.M.M.M.M.M.M.M.M.M.",
"M.M.M.M.M.M.M.M.M.M.M.M.M.M.M.M.M.M.M.M.M.M.M.M.M.M.M.M.M.M.M.M.M.M.M.M.M.M.M.M.M.M.M.M.M.M.M.M.M.M.M.M.M.M.M.M.M.M.M.M.",
"M.M.M.M.M.M.M.M.M.M.M.M.M.M.M.M.M.M.M.M.M.M.M.M.M.M.M.M.M.M.M.M.M.M.M.M.M.M.M.M.M.M.M.M.M.M.M.M.M.M.M.M.f.f.f.M.M.M.M.M.",
"M.M.M.M.M.M.M.M.M.M.M.M.M.M.M.M.M.M.M.M.M.M.M.M.M.M.M.f.M.M.M.M.M.M.M.M.M.M.M.M.M.M.M.M.M.M.M.M.7.7.M.J f j V 4.M.f.M.M.",
"R ~ M.M.M.M.f.M.M.M.M.M.M.M.M.M.M.M.M.M.M.M.M.M.M.M.M.M.h.M.f.M.M.M.M.M.M.M.M.M.M.M.M.M.M.M.f.&.@.4.M.R J M.4.7.@.M.M.M.",
"/ D 4.{ M.f.M.M.M.f.M.M.M.M.M.f.f.M.M.M.M.M.M.M.M.M.M.M.f.M.M.M.M.M.M.M.M.M.M.M.M.M.M.f.f.4...{ @.r.4.f.4.{ W V A 7.M.M.",
"f.N e q s N W f.j.M.M.f.f.M.M.M.M.M.M.f.M.M.M.M.M.M.M.M.M.M.M.M.M.M.M.M.M.M.M.M.M.f.M.7.W J Q Q W { { W D V x h W M.M.M.",
"M.@.h w 1 2 q e h A ;.M.M.M.M.f.M.f.M.M.M.M.M.M.M.M.f.M.M.M.M.M.M.M.M.M.M.M.M.M.M.f.W F / 7.;.R / J A V x s s F M.M.M.M.",
"7.M.M.;.V e 4 8 8 4 9 t b W 7.M.M.M.M.M.M.M.M.f.f.M.M.M.M.M.M.f.M.M.M.M.M.M.M.f.{ F W 7.4.R J F V N x s i f F M.M.f.M.M.",
"M.M.M.M.M.i.N 9 2 q q 4 4 3 q f V Q M.M.f.h.M.h.f.M.M.M.M.M.f.M.M.M.M.M.M.f.4.;.@.4.;./ W F V N x f s 9 f W 7.M.M.M.M.M.",
"M.M.M.M.7.M.M.R j 4 1 8 3 q e 1 > 3 q f A 1.M.M.M.M.f.M.M.f.z i 4.f.M.M.;./ R / 4.{ W F V N x f s i 4 3 W M.M.M.j.M.f.M.",
"M.M.M.M.M.M.M.M.M.;.N e q q > 2 4 3 < - - 1 q j F ;.f.4.M.A     q M.;.W D ../ W R A A N b x f t i r O j M.M.M.M.M.M.M.M.",
"M.M.M.M.M.M.M.M.M.M.M.4.x 9 % ; < > 3 r 0 2 1 % # > x ;.7.N . X & R { { 7.y.W D V V b f f i r f A W 2 t M.f.M.M.M.M.M.M.",
"M.M.M.M.M.M.M.M.M.M.7.;./ M.J s 3 9 r 5 - - < 8 1 < H 6.J b > . i y l L F C L G c j h a r s B @.M.M.f.f.f.M.M.M.M.M.M.M.",
"M.M.M.M.M.M.M.M.M.M.M.M.f.M.M.M...l q O % 5 w f > C %.A x a 9 e s - $ $ u J L V s u i s N { M.M.M.f.M.M.M.f.f.M.M.M.M.M.",
"M.M.M.M.M.M.M.M.M.M.M.M.M.7.7.M.u.A 7.D y 8 O & 1 m j u y s j t 5 6 q b W V f t r i k K 7.M.M.f.f.M.f.f.M.M.M.M.M.M.M.M.",
"M.M.M.M.M.M.M.M.M.M.M.M.4.;.4.f.f.M.M.j.Z u % 6 - > w q 0 8 1 - 1 t V V d r e i j N J M.M.M.j.M.@./ M.M.M.M.M.M.M.M.M.M.",
"M.M.M.M.M.M.M.M.M.M.M.M.4.@.@.4.M.M.f.M.M.M.x 4 @ > ; > - ; 4 t v N g w w t s c F V e V M.r.f.R O o N f.M.M.M.M.M.M.M.M.",
"M.M.M.M.M.M.M.M.M.M.M.M.f.;.;.{ 4.M.M.M.t.@.L Q d - & = 0 j N m s t 0 t s g V S l w 2 = f o.@.x   . , M.f.M.M.M.M.M.M.M.",
"M.M.M.M.M.M.M.M.M.f.M.f.M.;.{ ;.&.r.M.Q F } &.;./ V t v D N s e w e p f b V b t 0 3 = + t V N j =   e f.M.M.M.M.M.M.M.M.",
"M.f.7.f.M.M.M.M.M.f.M.M.M.;.7./ &.@.G W 4.@.W S / M./ V s e e r i f x N n e = = 0 0 O 2 A l k p 2 1 F M.f.M.M.M.M.M.M.M.",
"M.F s q t x F 4.M.M.f.f.M.7.{ 4.&.W { 7.Q J F b A v i q q e r s f N n a 1 # % s q * e s i y t s J M.M.M.M.M.M.M.M.M.M.M.",
"M.M.f.W x 9 ; > 9 h A / M.7.4.7...r.1.L G A v x r 8 6 9 t s j N J 4.{ F N 8 M N : s e , j x V M.7.M.f.M.f.M.M.M.M.M.M.M.",
"M.M.M.f.M.M.W x q = # - 4 e @./ Q R D V N b f e 6 q j F ;.;.7.M.M.M.f.M.M.D M.F M A = a x C M / M.M.M.M.M.f.M.M.M.M.M.M.",
"M.M.M.M.f.f.M.M.f.J x q # e ;.W A N l s i r 9 0 f G M.M.h.f.M.M.M.j.M.M.,.M.j.;.M.^ / F 7 c V N 7.7.M.f.7.M.M.M.M.M.M.M.",
"M.f.j.M.M.M.M.f.M.M.M.{ j b b s t e e q q i x J 7.M.M.M.M.M.M.h.M.M.M.M.M.M.M.M.M.f.M.4.7.W V b D M.f.M.M.M.M.M.M.M.M.M.",
"M.M.M.M.M.M.M.M.M.f.f.i.{ / R J J J F A x b { M.M.M.M.M.M.M.h.M.M.M.M.f.M.M.M.M.M.M.M.M.f.M.@.A 4.M.M.M.M.f.M.M.M.M.M.M.",
"M.M.M.M.M.M.M.M.M.M.M.M.M.M.M.M.M.M.M.M.f.J F 7.M.M.M.M.M.M.M.M.M.M.M.M.M.M.M.M.M.M.M.M.M.M.M.M.M.M.M.M.M.M.M.M.M.M.M.M.",
"M.M.M.M.M.M.M.M.M.M.M.M.M.M.M.M.f.M.M.M.M.M.f.M.M.M.M.M.M.M.M.M.M.M.M.M.M.M.M.M.M.M.M.M.M.M.M.M.M.M.M.M.M.M.M.M.M.M.M.M.",
"M.M.M.M.M.M.M.M.M.M.M.M.M.M.M.M.M.M.M.M.M.M.M.M.M.M.M.M.M.M.M.M.M.M.M.M.M.M.M.M.M.M.M.M.M.M.M.M.M.M.M.M.M.M.M.M.M.M.M.M.",
"M.M.M.M.M.M.M.M.M.M.M.M.M.M.M.M.M.f.M.M.M.f.M.M.M.M.M.M.M.M.M.M.M.M.M.M.M.M.M.M.M.M.M.M.M.M.M.M.M.M.M.M.M.M.M.M.M.M.M.M.",
"M.M.M.M.M.M.M.M.M.M.M.M.M.M.M.M.M.M.M.M.M.M.M.M.M.M.M.M.M.M.M.M.M.M.M.M.M.M.M.M.M.M.M.M.M.M.M.M.M.M.M.M.M.M.M.M.M.M.M.M.",
"M.M.M.M.M.M.M.M.M.M.M.M.M.M.M.M.M.M.M.f.M.M.M.M.M.M.M.M.M.M.M.M.M.M.M.M.M.M.M.M.M.M.M.M.M.M.M.M.M.M.M.M.M.M.M.M.M.M.M.M.",
"M.M.M.M.M.M.M.M.M.M.M.M.M.M.M.M.M.M.M.M.M.M.M.M.M.M.M.M.M.M.M.M.M.M.M.M.M.M.M.M.M.M.M.M.M.M.M.M.M.M.M.M.M.M.M.M.M.M.M.M.",
"M.M.M.M.M.M.M.M.M.M.M.M.M.M.M.M.M.M.M.M.M.M.M.M.M.M.M.M.M.M.M.M.M.M.M.M.M.M.M.M.M.M.M.M.M.M.M.M.M.M.M.M.M.M.M.M.M.M.M.M.",
"M.M.M.M.M.M.M.M.M.M.M.M.M.M.M.M.M.M.M.M.M.M.M.M.M.M.M.M.M.M.M.M.M.M.M.M.M.M.M.M.M.M.M.M.M.M.M.M.M.M.M.M.M.M.M.M.M.M.M.M.",
"M.M.M.M.M.M.M.M.M.M.M.M.M.M.M.M.M.M.M.M.M.M.M.M.M.M.M.M.M.M.M.M.M.M.M.M.M.M.M.M.M.M.M.M.M.M.M.M.M.M.M.M.M.M.M.M.M.M.M.M.",
"M.M.M.M.M.M.M.M.M.M.M.M.M.M.M.M.M.M.M.M.M.M.M.M.M.M.M.M.M.M.M.M.M.M.M.M.M.M.M.M.M.M.M.M.M.M.M.M.M.M.M.M.M.M.M.M.M.M.M.M.",
"M.M.M.M.M.M.M.M.M.M.M.M.M.M.M.M.M.M.M.M.M.M.M.M.M.M.M.M.M.M.M.M.M.M.M.M.M.M.M.M.M.M.M.M.M.M.M.M.M.M.M.M.M.M.M.M.M.M.M.M.",
"M.M.M.M.M.M.M.M.M.M.M.M.M.M.M.M.M.M.M.M.M.M.M.M.M.M.M.M.M.M.M.M.M.M.M.M.M.M.M.M.M.M.M.M.M.M.M.M.M.M.M.M.M.M.M.M.M.M.M.M.",
"M.M.M.M.M.M.M.M.M.M.M.M.M.M.M.M.M.M.M.M.M.M.M.M.M.M.M.M.M.M.M.M.M.M.M.M.M.M.M.M.M.M.M.M.M.M.M.M.M.M.M.M.M.M.M.M.M.M.M.M.",
"M.M.M.M.M.M.M.M.M.M.M.M.M.M.M.M.M.M.M.M.M.M.M.M.M.M.M.M.M.M.M.M.M.M.M.M.M.M.M.M.M.M.M.M.M.M.M.M.M.M.M.M.M.M.M.M.M.M.M.M.",
"M.M.M.M.M.M.M.M.M.M.M.M.M.M.M.M.M.M.M.M.M.M.M.M.M.M.M.M.M.M.M.M.M.M.M.M.M.M.M.M.M.M.M.M.M.M.M.M.M.M.M.M.M.M.M.M.M.M.M.M.",
"M.M.M.M.M.M.M.M.M.M.M.M.M.M.M.M.M.M.M.M.M.M.M.M.M.M.M.M.M.M.M.M.M.M.M.M.M.M.M.M.M.M.M.M.M.M.M.M.M.M.M.M.M.M.M.M.M.M.M.M.",
"M.M.M.M.M.M.M.M.M.M.M.M.M.M.M.M.M.M.M.M.M.M.M.M.M.M.M.M.M.M.M.M.M.M.M.M.M.M.M.M.M.M.M.M.M.M.M.M.M.M.M.M.M.M.M.M.M.M.M.M.",
"M.M.M.M.M.M.M.M.M.M.M.M.M.M.M.M.M.M.M.M.M.M.M.M.M.M.M.M.M.M.M.M.M.M.M.M.M.M.M.M.M.M.M.M.M.M.M.M.M.M.M.M.M.M.M.M.M.M.M.M.",
"M.M.M.M.M.M.M.M.M.M.M.M.M.M.M.M.M.M.M.M.M.M.M.M.M.M.M.M.M.M.M.M.M.M.M.M.M.M.M.M.M.M.M.M.M.M.M.M.M.M.M.M.M.M.M.M.M.M.M.M."
};
