/* XPM */
static char *_d09b44aee3e4ae49d9ed0dda0ce3bb0[] = {
/* columns rows colors chars-per-pixel */
"60 75 144 2 ",
"   c gray94",
".  c gray96",
"X  c #F7F7F6",
"o  c #F8F8F8",
"O  c gray95",
"+  c #EFEFF0",
"@  c #EEEEEE",
"#  c #101D35",
"$  c #0F1B2D",
"%  c #A7A5A9",
"&  c #F3F3F3",
"*  c #F4F4F4",
"=  c #A5A3A8",
"-  c #25355C",
";  c #808493",
":  c #AAA8AD",
">  c #0E1B31",
",  c #A19EA3",
"<  c #172341",
"1  c #121F39",
"2  c #A3A1A5",
"3  c #0F1828",
"4  c #1A1615",
"5  c #0E192B",
"6  c #A8A6AB",
"7  c #848896",
"8  c #1A294D",
"9  c #53607A",
"0  c #2F3B5D",
"q  c #201A18",
"w  c #222F51",
"e  c #7A6252",
"r  c #26201C",
"t  c #ABAAAF",
"y  c #2C395B",
"u  c #735F51",
"i  c #8A8B95",
"p  c #1C2331",
"a  c #3E342F",
"s  c #7B685B",
"d  c #364568",
"f  c #16223B",
"g  c #B4B4BB",
"h  c #E7E8EA",
"j  c #1F2A44",
"k  c #414350",
"l  c #EBEBED",
"z  c #51515D",
"x  c #272B3B",
"c  c #707380",
"v  c #131112",
"b  c #8992A2",
"n  c #7A7E89",
"m  c #4F4A50",
"M  c #6D6E79",
"N  c #333034",
"B  c #B7B9C0",
"V  c #D0D3DA",
"C  c #68656B",
"Z  c #70594A",
"A  c #856C5A",
"S  c #5D5A62",
"D  c #18202F",
"F  c #2F3851",
"G  c #83838C",
"H  c #726969",
"J  c #CACED4",
"K  c #98969C",
"L  c #595254",
"P  c #393A47",
"I  c #C5C8D0",
"U  c #BEC1C9",
"Y  c #9D9BA0",
"T  c #3A4C70",
"R  c #2D3244",
"E  c #92755D",
"W  c #0C1220",
"Q  c #91837B",
"!  c #E1E3E6",
"~  c #5D657B",
"^  c #927C6B",
"/  c #7C818F",
"(  c #B59476",
")  c #A9A4A5",
"_  c #6C6A70",
"`  c #464B5E",
"'  c #302827",
"]  c #334060",
"[  c #5C4D44",
"{  c #8C8179",
"}  c #94867E",
"|  c #695D57",
" . c #968273",
".. c #A58367",
"X. c #4B4346",
"o. c #9E7D61",
"O. c #DCDEE3",
"+. c #D9DBE0",
"@. c #D6D8DD",
"#. c #66564D",
"$. c #7C777A",
"%. c #C19A76",
"&. c #807E82",
"*. c #B38E6D",
"=. c #757986",
"-. c #7D706A",
";. c #E6D7C7",
":. c #D5BBA0",
">. c #ACAFB8",
",. c #4C3E38",
"<. c #9197A4",
"1. c #86756B",
"2. c #73899D",
"3. c #929199",
"4. c #C9B097",
"5. c #9E8D7E",
"6. c #9D9FA8",
"7. c #868D9D",
"8. c #A98C71",
"9. c #82D5E3",
"0. c #475570",
"q. c #8A7B71",
"w. c #C28356",
"e. c #B8BEC8",
"r. c #A4978B",
"t. c #E2CFBC",
"y. c #97928C",
"u. c #587B96",
"i. c #BFA386",
"p. c #6A768D",
"a. c #99A1B0",
"s. c #C2A78E",
"d. c #6793A5",
"f. c #B4ADAC",
"g. c #B28662",
"h. c #98A7B8",
"j. c #ABA399",
"k. c #BA7F55",
"l. c #5A6C85",
"z. c #91C6D6",
"x. c #B19D8C",
"c. c #76BCCD",
"v. c #81CFDD",
"b. c #BB7D51",
/* pixels */
"o @ X @ X @ X @ X @ X @ X @ X @ X @ X @ X @ X @ X @ X @ X @ X @ X @ X @ X @ X @ X @ X @ X @ X @ X @ X @ X @ X @ X @ X l ",
"@ X + X + X + X + X + X + X + X + X + X + X + X + X   X + X + X + X + X + X + X + X + X + X + X + X + X + X + X + X + X ",
"X + .   .   .   .   .   .   .   .   .   .   .   X @ &   .   .   .   .   .   .   .   .   .   .   .   .   .   .   .   X @ ",
"@ X   .   .   .   .   .   .   .   .   .   .   .   @ h X   .   .   .   .   .   .   .   .   .   .   .   .   .   .   . + X ",
"X + .   .   .   .   .   .   .   .   .   .   .   X h l   .   .   .   .   .   .   .   .   .   .   .   .   .   .   .   X @ ",
"@ X   .   .   .   .   .   .   .   .   .   .   .   h ! X   .   .   .   .   .   .   .   .   .   .   .   .   .   .   . + X ",
"X + .   .   .   .   .   .   .   .   .   .   .   X J V O .   .   .   .   .   .   .   .   .   .   .   .   .   .   .   X @ ",
"@ X   .   .   .   .   .   .   .   .   .   .   . O J I o   .   .   .   .   .   .   .   .   .   .   .   .   .   .   . + X ",
"X + .   .   .   .   .   .   .   .   .   .   .   X J V   .   .   .   .   .   .   .   .   .   .   .   .   .   .   .   X @ ",
"@ .   .   .   .   .   .   .   .   .   .   .   .   h ! X   .   .   .   .   .   .   .   .   .   .   .   .   .   .   .   X ",
"X   .   .   .   .   .   .   .   .   .   .   .   X h l   .   .   .   .   .   .   .   .   .   .   .   .   .   .   .   . @ ",
"@ .   .   .   .   .   .   .   .   .   .   .   .   ! O.X   .   .   .   .   .   .   .   .   .   .   .   .   .   .   .   X ",
"X   .   .   .   .   .   .   .   .   .   .   .   X J +.  .   .   .   .   X   .   .   .   .   .   .   .   .   .   .   . @ ",
"@ .   .   .   .   .   .   .   .   .   .   .   X   O.O.X   .   .   .   X l X   X   X   .   .   .   .   .   .   .   .   X ",
"X   .   .   .   .   .   .   .   .   .   .   X + X @.!   X   X   X O   J g V J V ! h X   .   .   .   .   .   .   .   . @ ",
"@ .   .   .   .   .   .   .   .   .   . + +.a.B @.I V +.O.! ! * h >.p.7.t >.t >.g U V O   .   .   .   .   .   .   .   X ",
"X   .   .   .   .   .   .   .   .   .   h 9 - M n n n n n =.<.l V ] w l.c c c c c M 7.h X   .   .   .   .   .   .   . @ ",
"@ .   .   .   .   .   .   .   .   .   X +.d w p.i ; G n =.c <.O I y w =.K 3.3.i i i 6.@   .   .   .   .   .   .   .   X ",
"X   .   .   .   .   .   .   .   .   .   ! T - ; 6 = = , Y Y t l V d y ; t 6 % = 6 6 g h X   .   .   .   .   .   .   . @ ",
"@ .   .   .   .   .   .   .   .   .   X +.T - / % = = , , Y : O J d 0 ; t 6 % % 6 6 g +   .   .   .   .   .   .   .   X ",
"X   .   .   .   .   .   .   .   .   .   ! T - ; = = % , , K / h V d 0 7 t : : 6 : t g h X   .   .   .   .   .   .   . @ ",
"@ .   .   .   .   .   .   .   .   .   X +.T - ; = = % , Y 7 ~ + I d 0 7 t 6 6 : t 6 g     .   .   .   .   .   .   .   X ",
"X   .   .   .   .   .   .   .   .   .   ! T - ; % 6 % 2 2 c 9 l J d 0 7 t 6 6 t t % g h X   .   .   .   .   .   .   . @ ",
"@ .   .   .   .   .   .   .   .   .   X +.T - / % 6 = 2 2 9 9   I ] 0 ; 6 % 6 t t % g     .   .   .   .   .   .   .   X ",
"X   .   .   .   .   .   .   .   .   .   O.T - ; 6 = 2 , Y d 9 l J ] 0 ; % = 6 : : % g h X   .   .   .   .   .   .   . @ ",
"@ .   .   .   .   .   .   .   .   .   X @.T - ; % % 2 2 i y 9 O I ] 0 ; 6 % 6 : % % g +   .   .   .   .   .   .   .   X ",
"X   .   .   .   .   .   .   .   .   .   O.T - ; % % = = n w 9 l J ] 0 ; 6 % 6 : 6 % g h X   .   .   .   .   .   .   . @ ",
"@ .   .   .   .   .   .   .   .   .   X @.T - ; = = 2 % n w 9 O I 0 0 ; % % 6 % % 6 g     .   .   .   .   .   .   .   X ",
"X   .   .   .   .   .   .   .   .   .   O.T - 7 % 2 , 2 =.w 9 l I ] 0 7 6 6 6 % = 6 B l X   .   .   .   .   .   .   . @ ",
"@ .   .   .   .   .   .   .   .   .   X @.T - 7 % = % ) n w 9 O U 0 0 i t t : : % 6 B     .   .   .   .   .   .   .   X ",
"X   .   .   .   .   .   .   .   .   .   O.T - 7 = 2 2 , =.w 9 l I 0 0 7 : t : : 6 6 g l X   .   .   .   .   .   .   . + ",
"+ .   .   .   .   .   .   .   .   .   X @.d - ; , Y , Y c 8 9 & U y y 7 6 6 = 2 = = g     .   .   .   .   .   .   .   X ",
"X   .   .   .   .   .   .   .   .   . O +.d - ; , Y Y K c 8 9 @ I y y ; = 6.6.6.6.2 >.l .   .   .   .   .   .   .   . + ",
"+ .   .   .   .   .   .   .   .   .   X V d - ; ) ) = 2 c 8 9 & U y 0 7 6 = % 6 = = g O   .   .   .   .   .   .   .   X ",
"X   .   .   .   .   .   .   .   .   . O +.d - 7 : 6 6 , =.8 ~ @ I 0 0 7 t : 6 t : = g l .   .   .   .   .   .   .   . + ",
"+ .   .   .   .   .   .   .   .   .   X V d - 7 f.f.: 6 =.8 ~ & U y 0 i 6 % : : 6 = B O   .   .   .   .   .   .   .   X ",
"X   .   .   .   .   .   .   .   .   . O +.d - ; 2 % ) , =.8 ~ @ I 0 0 i 6 : t : = = B l .   .   .   .   .   .   .   . + ",
"+ .   .   .   .   .   .   .   .   .   X V d - ; % % % ) =.8 ~ & e.y 0 7 = = % = = = B O   .   .   .   .   .   .   .   X ",
"X   .   .   .   .   .   .   .   .   . O @.d - ; 6 ) ) ) c 8 9 @ U y 0 i : : % % 6 % B l .   .   .   .   .   .   .   . + ",
"+ .   .   .   .   .   .   .   .   .   X V d - ; 2 2 , 2 c 8 9 & B y 0 7 6 % % 2 2 % B O   .   .   .   .   .   .   .   X ",
"X   .   .   .   .   .   .   .   .   . O @.d - 7 6 = , 2 c 8 9 @ e.y 0 7 = = = 2 = % B l .   .   .   .   .   .   .   . + ",
"+ .   .   .   .   .   .   .   .   .   X V d - 7 % 2 , , c 8 9 * B y 0 7 = = = = % % B O   .   .   .   .   .   .   .   X ",
"X   .   . l .   .   .   .   .   .   . O @.d - 7 = , 2 ) c 8 9 h >.- 0 7 2 = = 2 2 2 g l .   .   .   .   .   .   .   . + ",
"+ .   .   B h.!   .   .   .   .   X   X J ] - 7 = , , , M 8 9 @.~ w 0 7 2 2 , , 2 , g O   .   .   .   .   .   .   .   X ",
"X   .   X = S / !   .   .   .     ! h B 0.- y ; 6.Y , Y M 8 9 V 2.- 0 i 2 , , , 2 , g l .   .   .   .   .   .   .   . + ",
"+ .   .   e.2.2.h.O.  .   .   o >.` d F 1 0 0.l.u.u.7 Y M 8 9 J h.y 0 7 2 , , 2 2 , g O   X   X O X & X O X   .   .   X ",
"X   .   X U b b ; >.X   .   . * a.< < < < w - 9 ~ ~ _ i M 8 0.z.e.y 0 i 2 , , = 2 , g @ & ! h V +.J B I O.O.+   .   . + ",
"+ .   .   U b ; c <.h .   .   o 6.< < < w - d p.2.2.2.7.M 8 T z.B - y i , Y Y , Y K >.* V 0.] R F F R R k k 6.X   .   X ",
"X   .   X U b ; M $.@.O .   . * a.< < < w - 0.p.b b b b ~ 8 9 z.a.w y G K 3.i i i i 6 + J j > > 1 < < j j j i & .   . + ",
"+ .   .   U b ; M M i i ; h   o <.< < 8 - - d 7 b b b b ~ w d.9.l.w y G K 3.3.3.G G : * I j # # f < < j w j 7 X   .   X ",
"X   .   X U b ; M _ -.| j e.o * <.< < 8 - - d / 7.7 7.b ~ 8 u.9.2.w y ; Y K K c u E :   J j # # 1 f < f < < ; & .   . + ",
"+ .   .   U b G _ _ 1.C < <.& o <.< < < - - ] M c c n 7.~ 8 9 9.d.w y G K K G m Z Z }   I j # # 1 f f f f # / X   .   X ",
"X   .   X U 7 M _ H  .1.< c . * <.1 < < - - ] C _ _ c G ~ w u.9.d.w F G K K S X.s u 1.J I j > > 1 f f f f 1 ; & .   . + ",
"+ .   .   U &._ H H  .-.< 9 h o b 1 1 < - - ] C _ _ M n 9 T c.v.2.w F G K 3.F ` 5.1.q.j.>.j # > 1 f f f 1 # / X   .   X ",
"X   .   X e.$.H _ H ^ A < m B h b 1 < j - - ] _ M _ M G ~ d.9.9.n w F G K i F P 5.A q.-.$.` R > 1 f f 1 1 # ; & .   . + ",
"+ .   .   U } { H H ^ 1.k 1.^ f.7.1 ` 0.w w z Q Q Q Q } G c.9.v.n w F G K i F P  .A  .S L z P > x x 1 1 1 1 ; X   .   X ",
"X   .   . t.$.z z C ` z z S H $.9 1 z z 8 8 z } } } } } q.y.r.j.{ w F G 3.&.R k 5.e q.S L ` P k 5.-.R f 1 1 7 & .   . + ",
"+ .   .   ;.C 8 S C F R X.k L s k j s s R j z Q Q } Q Q E o.E o.o.z F n &.S j k 5.u 1.S L k x m r.s. .x # # ; X   .   X ",
"X   .   . ;.C 8 S C F ,.#.[ #.e k x [ -.-.z z Q Q { { Q ^ A e A ( i F &.z < f k } u ^ S L k x m i.i.w.X.m j ; & .   . + ",
"  .   .   ;.C 8 z C F X.s s e A m x P q. .H z Q { { { -.^ ..o...%.1.m &.` < 1 P ^ u ^ S m P x m i.( w.H -.k / X   .   . ",
".   .   . ;.C 8 ` S R X.s s e A k x P H  .H z { { q.H m ..( %.*.( m k &.` < 1 P ^ | ^ S k P x m i.8.w.s | x ; & .   .   ",
"  *   * O ;.S j k m x X.A s | e k x P $.r.H z Q { C P #.*.( ( 8.%.L j &.` < 1 P ^ | ^ m p x p L 4.( k.e 8.R / X   *   . ",
".   *   X , a ' ' r p ,.s A L X.R x P -.5. .s o.H m < m ( %.( 8.%.s < $.` < 1 z  .| | R > # D L 4.( k.e ..R ; & *   *   ",
"  *   * & { q r q 4 q r a [ N ' N ' a L | ^ u e [ X.C x.:.4.4.:.:.s.C k m < 1 S  .u R # > 1 D X.8.o.b.Z E x ; X   *   . ",
".   *   X &.4 r r q q q q r r r r r ' ' a a 4 ,. .5.:.t.t.;.;.t.;.;.t.y.r.C L S [ | #.m p p f X.....w.Z s p ; & *   *   ",
"  *   * & &.q q q q 4 4 4 q 4 4 q r a ,.Z [ ,.X.| x.:.:.i.5.5.4.:.4.4.:.:.8.E A L A ....L x p e *.g.w.Z #.> / X   *   . ",
".   *   X $.v q 4 v 4 4 v 4 v v 4 r a ,.Z Z Z a q 8.%.%.u q q E ( E A o.o...E ..s.i.%.%.( P D e %.g.w.s C # ; & *   *   ",
"  *   * & &.4 q r r ' a a a a a a ,.[ [ Z Z Z a a E o.o.A a a A o.E A E E E E ..( *.*.*.*.[ N e *.g.k.| k x i X   *   . ",
".   *   X r.[ [ [ [ #.#.u u u u s s s s e e e e s u u Z u e Z Z e u e s A s e e e u Z u e u e u u u u Z #.#.j.& *   *   ",
"  *   * & y.N a a N N x p p D p p D D D D D D p p D D D D p D D p p p p p p p p ' N N N N N N N N a N a a a y.X   *   . ",
".   *   X $.v v v v 4 r p 4 r r 4 q v v 4 4 v v 4 v v q v q r 4 r q q 4 r ' ' r ' q q 4 4 4 v v 4 4 4 q r r } & *   *   ",
"  *   * & / 5 $ 3 5 3 5 > 5 $ $ $ $ 3 5 5 5 5 3 3 3 3 3 3 5 3 3 3 3 3 3 3 3 3 3 3 W W W W W W W W W W W W W =.X   *   . ",
".   *   X / # 1 1 1 # # # 1 # # 1 1 1 1 1 1 # # # # # # # # # # # # # # 1 1 1 # # # # # # # # # # # # # # > / & *   *   ",
"  *   * * / 5 > $ # $ $ $ $ $ $ $ $ $ $ 5 $ $ $ $ $ $ $ $ $ 5 $ $ $ > $ $ $ $ $ 5 5 $ $ > > > > $ > > $ $ 5 n X   *   . ",
"* O & O X n 5 > $ # 5 > # 5 $ > > 5 $ 5 $ $ $ 5 3 > > $ 3 3 5 $ > $ > $ $ $ $ 5 3 3 5 5 $ $ $ $ $ 5 $ 5 5 3 n * & O &   "
};
