/* XPM */
static char *_229fc9990934ced94531ba3556c1302[] = {
/* columns rows colors chars-per-pixel */
"60 34 11 1 ",
"  c #47704C",
". c white",
"X c None",
"o c #7E817A",
"O c #D0CDCA",
"+ c #CBC8C4",
"@ c #D4D2CE",
"# c #C5C2BD",
"$ c #D8D6D4",
"% c #BDBAB4",
"& c #B2AEA7",
/* pixels */
". ........................................................ .",
"                                                            ",
".                                                          .",
".                                                          .",
".                                                          .",
".                                                          .",
".                                                          .",
".                                                          .",
".                                                          .",
".                                                          .",
".                                                          .",
".                                                          .",
".                                                          .",
".                                                          .",
".                                                          .",
".                                                          .",
"o                                                          .",
"o                                                          .",
"o                                                          .",
"o                                                          .",
"o                                                          o",
"                                                            ",
"XXXXXXXXXXXXXXXXXXXXXXXXXXXXXXXXXXXXXXXXXXXXXXXXXXXXXXXXXXXX",
"OOOOOOOOOO$$$$$@@O+++OO@@@@@OO@@@@@@@OOOO@@@@O@O@@@@@@@OOOOO",
"OOOO+++OO@@@@OO++#+OO@@@@$$$+O$@@@@$$@@O+OOO+++OOOOOOOO+++OO",
"@OOO@@@O++OO@OO+OOOOOOOO+OO@#@OOO@@$$$@@++@@OO++++OO+##++O@@",
"O@@$@@O+++OO+#++O@@@@@@OO@@O#@O@$$$$$$$@+++@$$@O+++OO+##%##+",
"@@@@@@@@@OO#%#++++OOO++++++##@OOOOO@$$$@OO++O@@@@@@@O@OOO+##",
"@@@@O@@@OO##++++++++++#####%%+++##++OO@@O@@O##OOO@@@@@@@@@@@",
"#%%###%#%%%#%%%%%%%%%%%%%&&&&%%%%%%%#####++##%%#++++++++####",
"++#++#%&&#+#+++++++++#++#++&%######++++OOOOOO@+%+OOOOOOOOOOO",
"++++#%&%%######++OOOOOOOOO+&#+####+++OOOO@@@@@$@#+$@@@@@$$$$",
"++#%&&%#%%%#%####+++++O+OO#&++#++++++OOO@@@@@@@@@##OOO@@$$$$",
"O+%&%######%#########+++++%&####%#%####++OO@@@@@@@#%OOOO@$$$"
};
