/* XPM */
static char *a83234c1266340ded5b567980fe455f77ujrdmNFBaAbu2sy[] = {
/* columns rows colors chars-per-pixel */
"60 77 75 1 ",
"  c white",
". c gray90",
"X c gray91",
"o c #DFDFDF",
"O c #E8E6DE",
"+ c #0E0605",
"@ c #D2D2D1",
"# c #FCFBF4",
"$ c #D8D8D8",
"% c #E2E2E2",
"& c #CDCDCD",
"* c #F9F9F1",
"= c #F3F2EA",
"- c #D0D0CF",
"; c #D7D5CB",
": c gray94",
"> c gray92",
", c #F6F6EE",
"< c #D3D0C7",
"1 c #EDECE4",
"2 c #D5D5D4",
"3 c #C2BDB3",
"4 c #DEDCD3",
"5 c #F3F3F2",
"6 c #E4E3DA",
"7 c #DBD9D0",
"8 c gainsboro",
"9 c #CAC6BD",
"0 c #BAB4AA",
"q c #BFB9AF",
"w c gray96",
"e c #E1DFD7",
"r c #F1F0E7",
"t c #C5C0B7",
"y c #FCFCFB",
"u c #1E0F0E",
"i c #EEEEEE",
"p c #B7AFA5",
"a c #D0CCC4",
"s c #160A09",
"d c #F8F8F8",
"f c #FEFEFE",
"g c #ACA296",
"h c #A89D91",
"j c #EAE9E1",
"k c #CDC9C0",
"l c #C8C3BA",
"z c #271513",
"x c #B3AB9F",
"c c #331B18",
"v c #B0A79B",
"b c #908173",
"n c #A3978B",
"m c #89796B",
"M c #3E231E",
"N c #7D695D",
"B c #837163",
"V c #654F45",
"C c #95877A",
"Z c #9E9285",
"A c #6D594E",
"S c #562B21",
"D c #A2593D",
"F c #503730",
"G c #998C7F",
"H c #452E28",
"J c #5A443C",
"K c #7C3F2D",
"L c #C17551",
"P c #736055",
"I c #673326",
"U c #B46848",
"Y c #924D36",
"T c #C77E59",
"R c #CF8861",
/* pixels */
"  .&$y o&off$&% y2&X w@-i 5-@5 >-@d .&$y %&8ff8&% y$&. d@-> ",
"  .&$f o&8 f$&% y2&X w@-i 5--w >&@d .&$y %&8ff8&% y$&. d@&> ",
"..X>X..X>X..X>X..X>X..XX...XX...>X..X>X..X>X..X>X..X>X..X>..",
"&&> w@&: :&-w >&@y .&$f o&8ff8&% y2&X d@&i 5--5 i&@d X&2y %&",
"$$Xd:$$>di$$id>$85d.$8wdO44OO<3@i:8$Xd:$$>di$$id>$$:dX$85w.$",
"yy.@8yyo@oyy8@%yd$@Xd51r=rr1O;qvvpkO.@$dy%@8yy8@%yd$@.fw2@>f",
"  .&$y o&off$&% y2@j,****,,,rj49vhhgl-$y %&8ff8&% y$&. d@-> ",
"ooXi>%o>i>oo>iXooer********,rjO790vhh3<<oXi>oo>iXo%>iXo%ii.o",
"&&> w-&: :&-w >&4=**********,=14<lpvhnGbpi 5--5 i&@d X&2y %&",
"88X5i88>5>88i5X4r***#####***,,r6;930vnbBme5>88>5>8oi5X8o:5.8",
"ff.-$yfo-ofy$-o1r=**#####****,rO4<tpgZmNAg@8ff8-%fy$-. d2-> ",
"ff.-$yfo-ofy$-2O1,*#########**,1e<t0xhCNABa8yy8-%fy$-. d2->f",
"88X5i88>w>88i5eej=,,,,,*##*,rO4<lqpxhCBPVP;i88iw>88i5X8o:5.8",
"&&> w-&: :&-w 64e61=,*###*=r1j67<k30gZbNAPew--5 i&@d X&2y %&",
"%%Xi>%%Xi>%%>i4<41,###,j477;<a9llt0xhZbmNNk>%%>iX%%>iXo%>i.o",
"  .&$y o&8 f$&2;4OO67thTTTLLLDYVVBCCGCmBAVgoff8&% y$&. d@&> ",
"yy.@8dyo@oyy8@%;<;9gUULTTTLLUDKIMMJVANBPVVnoyy8@%yd$@Xyw2@>y",
"$$Xd:$$idi$$:d><9khVDULTRTLLUYKKSzs+zFVAAVni$$id>$$:dX$8wd.$",
"&&> w@&: :&-w >99pJIDULRRRTTLDYKIcs+++zFAVlw--5 i&@d X&2y %&",
"..XXX..XXX..XXX.<CMSDLRRRRRRLDKISMz++++uVB$X..XXX..XXX..XXX.",
"  .&$f o&8 f$&%f;VuSKIKYULLYSzccczzu+++sFg-8  8&o y2&. d@&i ",
"dd.28dd%2odd82.d;AzMISccIDKcuucMcccz+++uHp$oddo2%dw82Xd5$2>d",
"22Xy522iyi225y>2@CcMKMcHSDYccHHSzMScs++uJ$y:22:y>2$wyX@$wy%@",
"&&> w@-: :-@w >&24PSKIKKKUDMSKKISKIcu+sMV% 5--5 i&@d X&2y %&",
">>X%.>>.%.>>.%.>>XnFDDYYDLYIKYYDDYIzzzzFb.%.>>.%.>>.%X>X.%X>",
"  .&$f o&8 f$&% y$hFDTULUTDIKUUUUYSuszcJ7%&8  8&o y2&. d@&i ",
"ww.$oww%$%wwo$.w58&NKLTLURDSIDLLDIcs+ucJt.$owwo$%w5o$Xw:8$>w",
"@@>fw2@ifi@25f>@2ddCHDTDURDKIIDUYSu++ucFCif:@@:fi@2wfX@$df%@",
"--> w@-i :-@w >-2d nMIUYUTDKcuIYKc+++ucFB> 5@@5 i-@d X&2y %&",
"ii.o%ii.o.ii%o.ii%ogHcKSMIMs+suSSu+++scFB8o%ii%o.ii%oX:iooX:",
"  .&$f o&8 f$&% y2-qJzSczuzzzusucs+++scFB2&8  8&o f2&. d@&i ",
"::.8%::%8%::%8.:iooaAzcMMSISSScuz++++uMFN28%::%8.:io8X5io8X:",
"--> w@-i :-@w >-2d 7NMzzSYDDKMzzs++++uMFN% 5@@5 i-2w X-$y %-",
"@->fw@@i :@@5 >-2df%nJzscSIMzucc+++++sMJB<f52@5 i@2wfX-$df%-",
"ww.$o55%$%55o$.w:oo6kmcszcuuuuzu+++++uMVBBCgle88.w5o$Xw:8$>w",
"  .&$f o&8 f$&% w4O60bM+szuzzzu++++++uMAbBANbZgpady$&. d@&i ",
">i.%.>>.%.>>.o.=rOO7hGHs+uzzuuu++++++sHPnbmmbGvgxptt<Xi>%%Xi",
"-&> w@-: :-->1jO,,1;hbJusczuuuuu+++++sFNhZZnGn0qt0pgh9&2y %&",
"@@Xy52@iyi@7jr14,,,enNJuuzuuuuuz++++++Fmvxgghnqk99tqnqk2dy%@",
"dd.28wd%227j,r6;=##jhNFuszusuzzu++++++Fm03gvpvx;7;9lql4x-$>d",
"  .&$f o;44461j;j##,vNJuuzs+uusu++++ssHb0apxl9xlO;9kt0Ogvli ",
"XXX.XXXeO16a<r1<7###tBPzuus+ss+s+++szcHbq;9qk7tg69379l13vaXX",
"&&> w@41,=O;kj17kr##7NBHuuss+s+++++zHHFbq;4k77;Z<xt1<kr335%&",
"22Xd:41,,,1<t;r6a7*#OBbJzuusss+++szHFFHP3eO6e6aZvnt,7k6qey%2",
"yy.@261==,,6ltO14kr#1mGBFzuszussucMMHFFVpj=,rj<GCGq,ete9=:>y",
"  .&@j=r*=,=jt916a4#=CnqBHMMHHczcFJFJJAPgj**=r;bmCp,O3j;5ii ",
"%%X>4j,r,,r1=;g717k=,ZgjkPFVVVFcHVVAAAmbg6##,;<GmCv=O3r6,d.%",
"&&>yej,,r=,rjjq01Ol6,hx=1gVPBBJMVBNmBBnhqO###<qnBCh1O351,y%&",
"$$Xi41=,=1,,16O9;,aarv0,*<CbGbJJCGbGbGpp;;*##OphNbZ66qr,#5%$",
"ff.-4j1,,jO==j;79O43jxt,*O0xtvAN0vnhZhlkO4*##rvGPCb;7p=*#e>f",
"f .&;O6=,reer=Oaat4340<*#1t36lNGlt00gx<;r7,##=vANnm9<0,#=2> ",
"ooX>;671*=O;6r=690qa;3e#*1a3O;Z39<k9x074r4=*#=gNCxm0a3,y67.o",
"&&>d7e<6*=17ae=r;gh77k1#,r7te<vl97<;3qeO1==**rqmCvbnlq#y4O%&",
"ooX>;e<7**r;0k1=jqZ767*,1rOk;a3t964e<36jO,==,1<bZkGb0p#y=:.8",
"f .&;6;k=#=7pl6=1<bl11,66,=;k4ap346O4l664=,rrj;nm<nmg3kjO$> ",
"ff.-<673O**jkq;114mp==6<j*,6tj;hqa41O<a<<,*,1OegNkqmCCv7l@>f",
"$$X57e707,#=Oal4jOZh=Ok;=##rq6eh0O11r<h9a**,jeO0ml6GmVvled.$",
"&&> O7<pkr**1O;9;e0Zr7tO*##=q<Ohp1r110G;a,*=646kZk,qmJg4# %&",
"%%X>%7<plO,*,1j4kk9v19k,##*,391xv1r1OZGe;=*r66;;hl,ebFne,w.%",
"  .&2ee034==*=1jekq9jq6##**,9qrqnOrr4bCe44r16jaagq==nFA061i ",
"yy.@8OOl0a11=*r1O6lq<3=#*,**apr9G4rr<mb7<a1176;3g0=#3VJG4i>y",
"22Xd:7j<0q4j1==1O16gn3r*=,**agj<ba1O;hCa9;r=;7epg0=,4BVZ3<%2",
"&&> w264tx9eO1===,rlZp6,r=,*<gO7m367lppp3;1,;;Oxnt,=jgHJPq%&",
"XXX.Xe;470pa6Ojr,,1;xha1=1,*ah44mv;<q49hl7O,;a60Z9,r4aHMBqXX",
"  .&$j976<x07O61==170nger1,*kne4Bn9<<,lga;j=ete3C3r1keAuVhi ",
"dd.2oOt;6elv34e6111;qvmtr1,,tZ63PG94e,qn<kO16p7lbpO1kOZuMZ>d",
"@@Xy5@33667pv97eOOea90PgOO==0genPZ36Orpmaljj6xk3mx7j;e0zsm%@",
"-&> w-tx<ee9g09;e67a<aPb76r1v3kbNq;66aGh7t6770pqmg<j44lH+Ao&",
">i.%.>9xq4$230q9a<@@;0AN9er4Gg0NG4O6<nnk63al<tgtbnkO42qA+VXi",
"  .&$d<qq97-29qta&k0hbJA0e=9bxgBqOOj;v3lk3l979nknCq6e;pPMVi ",
"ww.$o.aqtt9a9a<<@khmBNHAx;O0Z0CZ4jOO430gvt3;63Gn9bgeO7vVFAXw",
"@->fw&9tp3a9t003kanBNAHNg<7pbhbt666e;txGn304O<GBavn;67xFcNo-",
"--> 5k3tqg0a&atq0p0hCbNNg4axbph9744;akvCg3341;gB07hq7@qAuPo-",
"::.8-l0tqpnv3k&-kqxxpxbVpa3vGlqp924<39qG0l9476qhv1qZkkqNzAX5",
"  .&ltptq0vZhpqtk-a300gPCpphha90pt@al<kxk9k<te<vv;tBpkpPMV> ",
"iiX2t3x333phhgxxpqk-&kl0ngvbx;lqp0<t03q0pttq0<;hxpkNn3gAMPXi",
"-->;qqvqt3l30xvp39&&9l9aa93g3k00xpkvx93qp<aGCgkghh0bmhGJcNo-"
};
