/* XPM */
static char *_235e60da25a488ead5974495817bf2e[] = {
/* columns rows colors chars-per-pixel */
"60 44 85 1 ",
"  c #A85A35",
". c #9C6145",
"X c #C58F75",
"o c #934F30",
"O c #7C4227",
"+ c #9E7A68",
"@ c #BA8870",
"# c #975739",
"$ c #7E4529",
"% c #AA613E",
"& c #C49985",
"* c #AB816E",
"= c #BE663D",
"- c #BA8B75",
"; c #A57E6C",
": c #B4785B",
"> c #98705C",
", c #673620",
"< c #B0846E",
"1 c #9E7662",
"2 c #8B5941",
"3 c #A87861",
"4 c #C18B72",
"5 c #BF6C46",
"6 c #B9856D",
"7 c #A16A51",
"8 c #BA9786",
"9 c #BC8F79",
"0 c #B38773",
"q c #C2927C",
"w c #87543B",
"e c #93654E",
"r c #BE6941",
"t c #845D49",
"y c #A95D38",
"u c #8E5E48",
"i c #AC6441",
"p c #C4886C",
"a c #C0704B",
"s c #C48467",
"d c #CC957C",
"f c #C69E8B",
"g c #B18D7C",
"h c #A48373",
"j c #AA8878",
"k c #C48162",
"l c #80492F",
"z c #AB7D67",
"x c #B57F65",
"c c #B27254",
"v c #AD6746",
"b c #834D33",
"n c #966C57",
"m c #B59281",
"M c #B78268",
"N c #9C7360",
"B c #8B6654",
"V c #B57C61",
"C c #A57158",
"Z c #B06D4D",
"A c #9B5D41",
"S c #BD653C",
"D c #6E402A",
"F c #D57F56",
"G c #B37557",
"H c #957465",
"J c #794E39",
"K c #6A3A25",
"L c #714530",
"P c #754A36",
"I c #D1A08A",
"U c #C27450",
"Y c #D58D6C",
"T c #7E5644",
"R c #D37245",
"E c #734734",
"W c #D57548",
"Q c #C88C6F",
"! c #855138",
"~ c #C27753",
"^ c #D67D53",
"/ c #D6835C",
"( c #C47B59",
") c #C47E5E",
"_ c #A0674D",
/* pixels */
"ooo3uO$$$$OuB,,,,,,E1$$$$$$l9WRRRRRRd^RRRRRRYT,,,,,,TCoooooo",
"...<nwwwwwwnHEPPPPPThwwwwww2&/FFFFFFI/FFFFFFdBEPPPPEB*......",
"XXXq4@@&j11++NN;gN11;11+8zzz0666fX44X444f0zz*+NNj86@4qXXdf4X",
"===SS=S)eOOOOOO21OOOOOOb*ooooooo<%      M2OOOOOOekS==S=SUQS=",
"XXXqXXX&g+;;;++hm+++h++;8***g@@@fX44q-@@fj;;h+11j8@@4dXXdIXX",
"AAA*3AAAAAA3+!wwwwwuhwwwwww2&/FF^FF^Icvvvvvv6BEPEEEEB@vvvvvv",
"...<3......3;222222ej222222u&///////I:ZZZZZZ@BJJJJJJB-ZZZZZZ",
"pppX4pp&qMM6@MM-mNN1+NN+m1NN;333f4pp466M&h11+1N>jmxx6@669m11",
"======Sk:      Z1O$OOOOb+$OOOOO$*i      M2OOOOOOe:      Z1OO",
"@@@qq44&8@@--<<-m1++j;;*8;;;j***fX44q0<<8h++h*;;g8@@99@@98;;",
"bbl1C######C1lbbbbb2-iiiiiiv&Uaa55a5q2bbbbbb1Viiiii%:z######",
"uu2;z777777*huuuuuunmccccccGf)((((((&nuuuuuu;6cccccc6-777777",
"BBBBBBB;g333333<gn>>N>>18333z33381>NN>>ng@VVMMxxq&spppppXfxx",
"KKK,,K,tCoooooo_+O$$$$$b*ooooooo*b$$$$$O1Z yyyy :s======~@ y",
"HHHh+HHhghhjm--m8**jg**08---8999f-00mh;;mg<<9q--&&XXdfdddfXX",
"DDKBtDDDDDKtM%%%%%%Z9%%%%%%ida555555X2lbllllN:%%%%%%:Qr55555",
"ttt+>ttttttH9G:::::M&:::::G:fs))kkkkf>eeeeeeh@G::::G@&)kkkkk",
"kkksskkddkkssssXIssssssp8nnn>nn>8MVVxVVV8+nn>>nnh9VVVxVV@&VV",
"rrrrrr=ks=rrrrr(Xrrrrrra0l$$$$$$*iyyyyyy6u$$$$$$eVyyyyyyZ@yy",
"999&dXX&&XXd8009800-8<<0g+++m---fdddfqXX&900mh++hj**jg**jg**",
"ooozGyyyyyyG>$l$$l$wHKKKKKKD-^WWWWWWdUrrrrrrstKKKKKKTBKKKKKK",
"CCC9-::V:::@jeeeneeNjttttttt&YYYYYYYIQkksskkdHttttttH;tttttt",
"::::::G-;eeeeeeNjeeeeeen8:GG::::fskkkkk)&zCCCCC7007CCCC7z&))",
"%%%%%%%Vnllllllu+llllll!0%%%%%%%qU55555rX7######33######_Xr5",
"---&q--q9<<g8@@9&@-9&XXXIdddf<<<m000&q9-8g008g**jj**g&99qfdd",
"yy xc yyyy Gp=rr=r=UdWWWRWWW9l$$$$$$;Aoooooo3eO$$$$Oup=r==rr",
"xxVq-VVxMxx9&sppQppXIYYYYYYYfN>>N>>>m<33z333mh>>>N>>hfsppQpp",
"TTTTTTTH<_77777zm_77777C&GcGGccG&C777777gNuueuuu+-cccGccMm77",
"DDDDDDDB3######70######.9iii%iii9.######<ebbbbblnx%iiiiiG0##",
"HH>h9669q44&&@@-q@@9f<<0m000f-@@q-@@8;++h+HHj9<<-9@@qm;;*j;;",
",,,B(S====S(x      v0ooooooo-%      *L,,,,,,BG      c>OOOOOO",
"BBBhqssppssq8xxMMxx68333*33zfMxx66MM&Hnn>nBBh9xxM6MM9gNN11NN",
"JJJJJJJn1222222n+JJJJJJTj2222222m)~~~~~~qn22222216ZZZZZZVd~~",
"EEEEEELB>!w!ww!e+LEEEEEJhwww!wwwg(aUaaaaXe!w!ww!>MvvvvvvGdaa",
"@@@&g<<0-<<9jHHH+HH+8;;*g**<8HHH;+++8dXXdX44&j++;*;;g&@@-944",
"==Spc      cB,,,,,,E;ooooooohK,,,,,,+U==S==SsuOOOOOOux      ",
"444fq66--66qgHHH+11;f66@-<<0f+11+H>>m9@@XX44fj++;;++j&66@-66",
"......AzzA.....CIFFFFFF/IUUUUUU~mTPPPPPE+CA....AzzA....ACgA.",
".......zz......CIFFFFFF/I~UUUUU~mTPPPPPP+C......z*......Cg..",
"zzzmgzz**zzg&MM64664IQQQXQQQI@66@xxx&4664Qpp&j11++11h&ppQXpp",
"ooo3_oooooo7x      vXS=SS=SrX%      4U==SS=SsuOOOOOOusS=SS==",
"<<<8m<<00**g8<<0q44qIXXXdXXdI444q<<<8-@@qXXX&g;;**;;jfXXXdXX",
"AAAAAA#3>b!!!!beqaaaaaa~daaaaaaa9JLLLLLD1:ivivvixMivviviGqaa",
"#######3nlbbbblu4555555Uda55555a-PDDDDDDHc%%%%%%VV%%%%%%cX55"
};
